<?xml version="1.0" standalone="no"?>
<!DOCTYPE svg PUBLIC "-//W3C//DTD SVG 20010904//EN"
 "http://www.w3.org/TR/2001/REC-SVG-20010904/DTD/svg10.dtd">
<svg version="1.0" xmlns="http://www.w3.org/2000/svg"
 width="1254.000000pt" height="1254.000000pt" viewBox="0 0 1254.000000 1254.000000"
 preserveAspectRatio="xMidYMid meet">

<g transform="translate(0.000000,1254.000000) scale(0.100000,-0.100000)"
fill="#2563eb" stroke="none">
<path d="M3165 9975 c-191 -35 -325 -92 -469 -201 -197 -149 -350 -417 -377
-661 -6 -56 -8 -1116 -6 -2893 l3 -2805 21 -77 c103 -364 362 -628 710 -726
l98 -27 3125 0 3125 0 83 22 c225 60 444 214 571 401 87 129 155 303 169 435
4 34 7 1322 7 2862 0 2672 -1 2804 -18 2885 -33 153 -107 307 -208 432 -107
132 -299 261 -469 316 -167 54 -7 52 -3275 51 -2408 -1 -3034 -3 -3090 -14z
m6212 -351 c178 -41 352 -182 437 -354 82 -169 76 53 74 -2731 l-3 -2474
-1180 -5 -1180 -5 -32 -24 c-18 -14 -33 -28 -33 -31 0 -3 -8 -15 -18 -26 -10
-10 -49 -61 -87 -112 -38 -51 -72 -89 -76 -85 -4 5 -62 103 -129 218 -67 116
-134 228 -147 250 -14 22 -66 109 -117 194 -100 170 -127 194 -211 194 -72 0
-112 -29 -194 -144 -212 -298 -268 -376 -284 -402 l-18 -27 -1762 2 -1762 3
-3 2490 c-3 2782 -9 2549 69 2711 28 59 59 104 114 162 86 92 164 142 285 183
l85 29 3052 0 c2740 0 3059 -2 3120 -16z m-2605 -5641 c45 -78 130 -223 188
-323 192 -331 209 -350 304 -350 85 0 94 8 296 270 36 46 79 100 96 119 l31
35 1099 -1 1099 -1 3 -95 c9 -310 -162 -569 -450 -680 l-83 -32 -3080 0 -3080
0 -70 24 c-121 41 -185 80 -276 171 -141 140 -199 284 -199 498 l0 112 123 0
c67 0 815 0 1662 0 847 0 1620 3 1718 6 211 8 212 9 294 124 215 303 214 302
228 283 7 -10 51 -82 97 -160z"/>
<path d="M4610 8695 c-329 -62 -570 -279 -666 -600 -23 -78 -26 -109 -28 -235
-1 -156 8 -206 60 -338 63 -158 196 -314 342 -400 362 -214 825 -128 1072 200
164 217 219 481 155 740 -27 110 -84 232 -148 318 -179 241 -500 370 -787 315z"/>
<path d="M6731 8446 c-49 -18 -99 -79 -107 -132 -11 -74 22 -142 86 -174 39
-20 56 -20 1198 -20 638 0 1174 3 1192 6 45 10 96 61 110 113 24 89 -24 181
-109 210 -51 17 -2323 14 -2370 -3z"/>
<path d="M6693 7601 c-42 -30 -73 -90 -73 -139 1 -35 31 -102 58 -125 51 -46
59 -46 777 -47 445 0 693 4 718 11 72 20 127 92 127 167 0 44 -33 104 -73 133
l-40 29 -727 0 -727 0 -40 -29z"/>
<path d="M4385 6751 c-117 -10 -309 -60 -423 -110 -100 -43 -231 -125 -304
-190 -110 -98 -237 -288 -284 -427 -55 -163 -56 -169 -61 -653 -4 -347 -2
-464 8 -499 16 -59 64 -106 122 -121 33 -8 391 -11 1305 -11 1397 0 1320 -4
1381 66 17 18 35 50 40 71 14 48 14 779 1 883 -18 139 -21 152 -62 266 -127
359 -452 624 -858 700 -14 3 -43 10 -65 15 -50 13 -679 20 -800 10z"/>
<path d="M7954 6540 c-219 -55 -368 -135 -508 -275 -221 -222 -341 -554 -306
-847 21 -177 108 -397 206 -526 148 -195 352 -328 593 -388 140 -35 331 -34
480 2 426 103 735 456 792 906 30 238 -51 536 -201 733 -158 209 -361 340
-610 394 -124 27 -341 28 -446 1z m749 -604 c56 -23 85 -85 72 -154 -6 -32
-47 -77 -290 -322 -155 -157 -311 -315 -346 -352 -80 -83 -125 -100 -194 -74
-36 14 -78 52 -203 182 -104 109 -160 175 -165 196 -19 70 17 139 82 159 64
19 97 1 221 -124 l111 -112 292 298 c161 163 303 301 317 306 36 14 66 13 103
-3z"/>
</g>
</svg>
